# xmcd
#
# Track frame offsets: 
#        150
#        18456
#        41275
#        56794
#        78307
#        99510
#        118896
#        140200
#        160934
#        174935
#        192806
#        211245
#        235620
#
# Disc length: 3358 seconds
#
# Revision: 1
# Processed by: cddbd v1.5.1PL0 Copyright (c) Steve Scherf et al.
# Submitted via: ExactAudioCopy v0.95a5
#
DISCID=a90d1c0d
DTITLE=Eve Selis - Nothing But The Truth
DYEAR=2004
DGENRE=Roadhouse Rock
TTITLE0=Heart-Shaped Tattoo
TTITLE1=The Ballad of Kate Morgan
TTITLE2=Those Words We Said
TTITLE3=Blame It On The Rain
TTITLE4=Nothing But The Truth
TTITLE5=Mr. Lincoln
TTITLE6=Honky Tonk Town
TTITLE7=Pocket Full Of Stones
TTITLE8=Beautiful Day
TTITLE9=Let Love Come Through
TTITLE10=Someday
TTITLE11=Room At The Top
TTITLE12=Love Is On Your Side
EXTD=YEAR: 2004
EXTT0=
EXTT1=
EXTT2=
EXTT3=
EXTT4=
EXTT5=
EXTT6=
EXTT7=
EXTT8=
EXTT9=
EXTT10=
EXTT11=
EXTT12=
PLAYORDER=
